<mxfile host="app.diagrams.net" modified="2022-04-14T02:15:45.664Z" agent="5.0 (Windows NT 10.0; Win64; x64) AppleWebKit/537.36 (KHTML, like Gecko) Chrome/100.0.4896.88 Safari/537.36" etag="NOSj4GY5iDz9AoRk4aIL" version="17.4.0" type="github">
  <diagram id="mfs63I2pWONTZXY-teti" name="Page-1">
    <mxGraphModel dx="1422" dy="737" grid="1" gridSize="10" guides="1" tooltips="1" connect="1" arrows="1" fold="1" page="0" pageScale="1" pageWidth="850" pageHeight="1100" math="0" shadow="0">
      <root>
        <mxCell id="0" />
        <mxCell id="1" parent="0" />
        <mxCell id="4AfvLGZ91NmIXbaDwsSE-1" value="User" style="shape=umlActor;verticalLabelPosition=bottom;verticalAlign=top;html=1;outlineConnect=0;" parent="1" vertex="1">
          <mxGeometry x="170" y="280" width="30" height="60" as="geometry" />
        </mxCell>
        <mxCell id="wVVqegMXX3sOwlUOKb7j-1" value="" style="rounded=0;whiteSpace=wrap;html=1;" parent="1" vertex="1">
          <mxGeometry x="180" y="370" width="10" height="360" as="geometry" />
        </mxCell>
        <mxCell id="wVVqegMXX3sOwlUOKb7j-2" value="" style="rounded=0;whiteSpace=wrap;html=1;" parent="1" vertex="1">
          <mxGeometry x="300" y="280" width="10" height="450" as="geometry" />
        </mxCell>
        <mxCell id="wVVqegMXX3sOwlUOKb7j-3" value="" style="rounded=0;whiteSpace=wrap;html=1;" parent="1" vertex="1">
          <mxGeometry x="415" y="280" width="10" height="450" as="geometry" />
        </mxCell>
        <mxCell id="wVVqegMXX3sOwlUOKb7j-4" value="sortVisualizer" style="text;html=1;strokeColor=none;fillColor=none;align=center;verticalAlign=middle;whiteSpace=wrap;rounded=0;" parent="1" vertex="1">
          <mxGeometry x="395" y="240" width="60" height="30" as="geometry" />
        </mxCell>
        <mxCell id="wVVqegMXX3sOwlUOKb7j-10" value="" style="endArrow=classic;html=1;rounded=0;exitX=1;exitY=0;exitDx=0;exitDy=0;entryX=-0.5;entryY=0.202;entryDx=0;entryDy=0;entryPerimeter=0;" parent="1" source="wVVqegMXX3sOwlUOKb7j-1" target="wVVqegMXX3sOwlUOKb7j-2" edge="1">
          <mxGeometry width="50" height="50" relative="1" as="geometry">
            <mxPoint x="350" y="560" as="sourcePoint" />
            <mxPoint x="290" y="370" as="targetPoint" />
            <Array as="points" />
          </mxGeometry>
        </mxCell>
        <mxCell id="wVVqegMXX3sOwlUOKb7j-11" value="View Visualization" style="text;html=1;strokeColor=none;fillColor=none;align=center;verticalAlign=middle;whiteSpace=wrap;rounded=0;" parent="1" vertex="1">
          <mxGeometry x="215" y="340" width="60" height="30" as="geometry" />
        </mxCell>
        <mxCell id="wVVqegMXX3sOwlUOKb7j-12" value="" style="endArrow=classic;html=1;rounded=0;" parent="1" edge="1">
          <mxGeometry width="50" height="50" relative="1" as="geometry">
            <mxPoint x="313" y="370" as="sourcePoint" />
            <mxPoint x="410" y="370" as="targetPoint" />
          </mxGeometry>
        </mxCell>
        <mxCell id="wVVqegMXX3sOwlUOKb7j-13" value="script: sortVisualizer" style="text;html=1;strokeColor=none;fillColor=none;align=center;verticalAlign=middle;whiteSpace=wrap;rounded=0;" parent="1" vertex="1">
          <mxGeometry x="330" y="340" width="60" height="30" as="geometry" />
        </mxCell>
        <mxCell id="wVVqegMXX3sOwlUOKb7j-15" value="index.html" style="text;html=1;strokeColor=none;fillColor=none;align=center;verticalAlign=middle;whiteSpace=wrap;rounded=0;" parent="1" vertex="1">
          <mxGeometry x="275" y="240" width="60" height="30" as="geometry" />
        </mxCell>
        <mxCell id="wVVqegMXX3sOwlUOKb7j-16" value="" style="endArrow=classic;html=1;rounded=0;exitX=-0.145;exitY=0.31;exitDx=0;exitDy=0;exitPerimeter=0;" parent="1" source="wVVqegMXX3sOwlUOKb7j-3" edge="1">
          <mxGeometry width="50" height="50" relative="1" as="geometry">
            <mxPoint x="410" y="420" as="sourcePoint" />
            <mxPoint x="190" y="420" as="targetPoint" />
          </mxGeometry>
        </mxCell>
        <mxCell id="wVVqegMXX3sOwlUOKb7j-17" value="&lt;div&gt;render&lt;/div&gt;&lt;div&gt;scene&lt;br&gt;&lt;/div&gt;" style="text;html=1;strokeColor=none;fillColor=none;align=center;verticalAlign=middle;whiteSpace=wrap;rounded=0;" parent="1" vertex="1">
          <mxGeometry x="335" y="390" width="60" height="30" as="geometry" />
        </mxCell>
        <mxCell id="wVVqegMXX3sOwlUOKb7j-18" value="" style="endArrow=classic;html=1;rounded=0;entryX=0;entryY=0.422;entryDx=0;entryDy=0;entryPerimeter=0;exitX=1;exitY=0.278;exitDx=0;exitDy=0;exitPerimeter=0;" parent="1" source="wVVqegMXX3sOwlUOKb7j-1" target="wVVqegMXX3sOwlUOKb7j-2" edge="1">
          <mxGeometry width="50" height="50" relative="1" as="geometry">
            <mxPoint x="350" y="540" as="sourcePoint" />
            <mxPoint x="400" y="490" as="targetPoint" />
            <Array as="points">
              <mxPoint x="250" y="470" />
            </Array>
          </mxGeometry>
        </mxCell>
        <mxCell id="wVVqegMXX3sOwlUOKb7j-20" value="" style="endArrow=classic;html=1;rounded=0;exitX=1.233;exitY=0.422;exitDx=0;exitDy=0;exitPerimeter=0;" parent="1" source="wVVqegMXX3sOwlUOKb7j-2" edge="1">
          <mxGeometry width="50" height="50" relative="1" as="geometry">
            <mxPoint x="350" y="540" as="sourcePoint" />
            <mxPoint x="410" y="470" as="targetPoint" />
          </mxGeometry>
        </mxCell>
        <mxCell id="wVVqegMXX3sOwlUOKb7j-22" value="" style="endArrow=classic;html=1;rounded=0;entryX=1;entryY=0.389;entryDx=0;entryDy=0;entryPerimeter=0;" parent="1" target="wVVqegMXX3sOwlUOKb7j-1" edge="1">
          <mxGeometry width="50" height="50" relative="1" as="geometry">
            <mxPoint x="410" y="510" as="sourcePoint" />
            <mxPoint x="400" y="490" as="targetPoint" />
          </mxGeometry>
        </mxCell>
        <mxCell id="wVVqegMXX3sOwlUOKb7j-23" value="render&lt;br&gt;&lt;div&gt;animation&lt;/div&gt;" style="text;html=1;strokeColor=none;fillColor=none;align=center;verticalAlign=middle;whiteSpace=wrap;rounded=0;" parent="1" vertex="1">
          <mxGeometry x="330" y="480" width="60" height="30" as="geometry" />
        </mxCell>
        <mxCell id="ej9rEoGXwlJtoYrjenMS-2" value="Insertion sort Button&amp;nbsp;" style="text;html=1;strokeColor=none;fillColor=none;align=center;verticalAlign=middle;whiteSpace=wrap;rounded=0;fontColor=#000000;" parent="1" vertex="1">
          <mxGeometry x="215" y="510" width="60" height="50" as="geometry" />
        </mxCell>
        <mxCell id="ej9rEoGXwlJtoYrjenMS-3" value="insertionSort()" style="text;html=1;strokeColor=none;fillColor=none;align=center;verticalAlign=middle;whiteSpace=wrap;rounded=0;fontColor=#000000;" parent="1" vertex="1">
          <mxGeometry x="320" y="520" width="90" height="30" as="geometry" />
        </mxCell>
        <mxCell id="ej9rEoGXwlJtoYrjenMS-4" value="" style="endArrow=classic;html=1;rounded=0;fontColor=#000000;exitX=1.192;exitY=0.526;exitDx=0;exitDy=0;exitPerimeter=0;entryX=0;entryY=0.621;entryDx=0;entryDy=0;entryPerimeter=0;" parent="1" source="wVVqegMXX3sOwlUOKb7j-1" target="wVVqegMXX3sOwlUOKb7j-2" edge="1">
          <mxGeometry width="50" height="50" relative="1" as="geometry">
            <mxPoint x="360" y="550" as="sourcePoint" />
            <mxPoint x="410" y="500" as="targetPoint" />
          </mxGeometry>
        </mxCell>
        <mxCell id="ej9rEoGXwlJtoYrjenMS-5" value="" style="endArrow=classic;html=1;rounded=0;fontColor=#000000;exitX=1.192;exitY=0.526;exitDx=0;exitDy=0;exitPerimeter=0;entryX=0;entryY=0.621;entryDx=0;entryDy=0;entryPerimeter=0;" parent="1" edge="1">
          <mxGeometry width="50" height="50" relative="1" as="geometry">
            <mxPoint x="309.99999999999994" y="560" as="sourcePoint" />
            <mxPoint x="418.08" y="560.09" as="targetPoint" />
          </mxGeometry>
        </mxCell>
        <mxCell id="ej9rEoGXwlJtoYrjenMS-6" value="render&lt;br&gt;&lt;div&gt;animation&lt;/div&gt;" style="text;html=1;strokeColor=none;fillColor=none;align=center;verticalAlign=middle;whiteSpace=wrap;rounded=0;" parent="1" vertex="1">
          <mxGeometry x="335" y="570" width="60" height="30" as="geometry" />
        </mxCell>
        <mxCell id="ej9rEoGXwlJtoYrjenMS-7" value="" style="endArrow=classic;html=1;rounded=0;exitX=-0.145;exitY=0.31;exitDx=0;exitDy=0;exitPerimeter=0;" parent="1" edge="1">
          <mxGeometry width="50" height="50" relative="1" as="geometry">
            <mxPoint x="413.55000000000007" y="600" as="sourcePoint" />
            <mxPoint x="190" y="600.5" as="targetPoint" />
          </mxGeometry>
        </mxCell>
        <mxCell id="ej9rEoGXwlJtoYrjenMS-9" value="Bubble Sort Button" style="text;html=1;strokeColor=none;fillColor=none;align=center;verticalAlign=middle;whiteSpace=wrap;rounded=0;fontColor=#000000;" parent="1" vertex="1">
          <mxGeometry x="215" y="610" width="60" height="40" as="geometry" />
        </mxCell>
        <mxCell id="ej9rEoGXwlJtoYrjenMS-10" value="bubbleSort()" style="text;html=1;strokeColor=none;fillColor=none;align=center;verticalAlign=middle;whiteSpace=wrap;rounded=0;fontColor=#000000;" parent="1" vertex="1">
          <mxGeometry x="335" y="620" width="60" height="30" as="geometry" />
        </mxCell>
        <mxCell id="ej9rEoGXwlJtoYrjenMS-11" value="" style="endArrow=classic;html=1;rounded=0;fontColor=#000000;exitX=1.192;exitY=0.526;exitDx=0;exitDy=0;exitPerimeter=0;entryX=0;entryY=0.621;entryDx=0;entryDy=0;entryPerimeter=0;" parent="1" edge="1">
          <mxGeometry width="50" height="50" relative="1" as="geometry">
            <mxPoint x="190.95999999999995" y="650" as="sourcePoint" />
            <mxPoint x="299.04" y="650.09" as="targetPoint" />
          </mxGeometry>
        </mxCell>
        <mxCell id="ej9rEoGXwlJtoYrjenMS-12" value="" style="endArrow=classic;html=1;rounded=0;fontColor=#000000;exitX=1.192;exitY=0.526;exitDx=0;exitDy=0;exitPerimeter=0;entryX=0;entryY=0.621;entryDx=0;entryDy=0;entryPerimeter=0;" parent="1" edge="1">
          <mxGeometry width="50" height="50" relative="1" as="geometry">
            <mxPoint x="305.96" y="650" as="sourcePoint" />
            <mxPoint x="414.04" y="650.09" as="targetPoint" />
          </mxGeometry>
        </mxCell>
        <mxCell id="ej9rEoGXwlJtoYrjenMS-13" value="render&lt;br&gt;&lt;div&gt;animation&lt;/div&gt;" style="text;html=1;strokeColor=none;fillColor=none;align=center;verticalAlign=middle;whiteSpace=wrap;rounded=0;" parent="1" vertex="1">
          <mxGeometry x="335" y="660" width="60" height="30" as="geometry" />
        </mxCell>
        <mxCell id="ej9rEoGXwlJtoYrjenMS-14" value="" style="endArrow=classic;html=1;rounded=0;exitX=-0.145;exitY=0.31;exitDx=0;exitDy=0;exitPerimeter=0;" parent="1" edge="1">
          <mxGeometry width="50" height="50" relative="1" as="geometry">
            <mxPoint x="415.00000000000006" y="689.9999999999999" as="sourcePoint" />
            <mxPoint x="191.45" y="690.5000000000001" as="targetPoint" />
          </mxGeometry>
        </mxCell>
        <mxCell id="ej9rEoGXwlJtoYrjenMS-15" value="Reset Button" style="text;html=1;strokeColor=none;fillColor=none;align=center;verticalAlign=middle;whiteSpace=wrap;rounded=0;fontColor=#000000;" parent="1" vertex="1">
          <mxGeometry x="215" y="700" width="60" height="30" as="geometry" />
        </mxCell>
        <mxCell id="ej9rEoGXwlJtoYrjenMS-16" value="reset()" style="text;html=1;strokeColor=none;fillColor=none;align=center;verticalAlign=middle;whiteSpace=wrap;rounded=0;fontColor=#000000;" parent="1" vertex="1">
          <mxGeometry x="330" y="900" width="60" height="30" as="geometry" />
        </mxCell>
        <mxCell id="ej9rEoGXwlJtoYrjenMS-17" value="" style="rounded=0;whiteSpace=wrap;html=1;" parent="1" vertex="1">
          <mxGeometry x="180" y="730" width="10" height="250" as="geometry" />
        </mxCell>
        <mxCell id="ej9rEoGXwlJtoYrjenMS-18" value="" style="rounded=0;whiteSpace=wrap;html=1;" parent="1" vertex="1">
          <mxGeometry x="300" y="730" width="10" height="250" as="geometry" />
        </mxCell>
        <mxCell id="ej9rEoGXwlJtoYrjenMS-19" value="" style="rounded=0;whiteSpace=wrap;html=1;" parent="1" vertex="1">
          <mxGeometry x="415" y="730" width="10" height="250" as="geometry" />
        </mxCell>
        <mxCell id="ej9rEoGXwlJtoYrjenMS-20" value="render&lt;br&gt;&lt;div&gt;animation&lt;/div&gt;" style="text;html=1;strokeColor=none;fillColor=none;align=center;verticalAlign=middle;whiteSpace=wrap;rounded=0;" parent="1" vertex="1">
          <mxGeometry x="337.5" y="740" width="60" height="30" as="geometry" />
        </mxCell>
        <mxCell id="ej9rEoGXwlJtoYrjenMS-21" value="" style="endArrow=classic;html=1;rounded=0;fontColor=#000000;exitX=1.192;exitY=0.526;exitDx=0;exitDy=0;exitPerimeter=0;entryX=0;entryY=0.621;entryDx=0;entryDy=0;entryPerimeter=0;" parent="1" edge="1">
          <mxGeometry width="50" height="50" relative="1" as="geometry">
            <mxPoint x="189.99999999999991" y="730" as="sourcePoint" />
            <mxPoint x="298.08" y="730.0900000000001" as="targetPoint" />
          </mxGeometry>
        </mxCell>
        <mxCell id="ej9rEoGXwlJtoYrjenMS-22" value="" style="endArrow=classic;html=1;rounded=0;fontColor=#000000;exitX=1.192;exitY=0.526;exitDx=0;exitDy=0;exitPerimeter=0;entryX=0;entryY=0.621;entryDx=0;entryDy=0;entryPerimeter=0;" parent="1" edge="1">
          <mxGeometry width="50" height="50" relative="1" as="geometry">
            <mxPoint x="306.9199999999999" y="730" as="sourcePoint" />
            <mxPoint x="414.99999999999994" y="730.0900000000001" as="targetPoint" />
          </mxGeometry>
        </mxCell>
        <mxCell id="ej9rEoGXwlJtoYrjenMS-23" value="" style="endArrow=classic;html=1;rounded=0;exitX=-0.145;exitY=0.31;exitDx=0;exitDy=0;exitPerimeter=0;" parent="1" edge="1">
          <mxGeometry width="50" height="50" relative="1" as="geometry">
            <mxPoint x="413.55" y="770" as="sourcePoint" />
            <mxPoint x="190.00000000000006" y="770.5" as="targetPoint" />
          </mxGeometry>
        </mxCell>
        <mxCell id="5yzEs6_gvC9AchhQLLeW-2" value="Randomize&lt;br&gt;Array&lt;br&gt;Button" style="text;html=1;strokeColor=none;fillColor=none;align=center;verticalAlign=middle;whiteSpace=wrap;rounded=0;fontColor=#000000;" vertex="1" parent="1">
          <mxGeometry x="215" y="420" width="60" height="50" as="geometry" />
        </mxCell>
        <mxCell id="5yzEs6_gvC9AchhQLLeW-3" value="randomize()" style="text;html=1;strokeColor=none;fillColor=none;align=center;verticalAlign=middle;whiteSpace=wrap;rounded=0;fontColor=#000000;" vertex="1" parent="1">
          <mxGeometry x="330" y="450" width="60" height="20" as="geometry" />
        </mxCell>
        <mxCell id="5yzEs6_gvC9AchhQLLeW-4" value="" style="endArrow=classic;html=1;rounded=0;fontColor=#000000;exitX=1.192;exitY=0.526;exitDx=0;exitDy=0;exitPerimeter=0;entryX=0;entryY=0.621;entryDx=0;entryDy=0;entryPerimeter=0;" edge="1" parent="1">
          <mxGeometry width="50" height="50" relative="1" as="geometry">
            <mxPoint x="190.95999999999998" y="820" as="sourcePoint" />
            <mxPoint x="299.03999999999996" y="820.0900000000001" as="targetPoint" />
          </mxGeometry>
        </mxCell>
        <mxCell id="5yzEs6_gvC9AchhQLLeW-5" value="" style="endArrow=classic;html=1;rounded=0;fontColor=#000000;exitX=1.192;exitY=0.526;exitDx=0;exitDy=0;exitPerimeter=0;entryX=0;entryY=0.621;entryDx=0;entryDy=0;entryPerimeter=0;" edge="1" parent="1">
          <mxGeometry width="50" height="50" relative="1" as="geometry">
            <mxPoint x="310" y="930" as="sourcePoint" />
            <mxPoint x="418.0799999999999" y="930.0900000000001" as="targetPoint" />
          </mxGeometry>
        </mxCell>
        <mxCell id="5yzEs6_gvC9AchhQLLeW-6" value="" style="endArrow=classic;html=1;rounded=0;fontColor=#000000;exitX=1.192;exitY=0.526;exitDx=0;exitDy=0;exitPerimeter=0;entryX=0;entryY=0.621;entryDx=0;entryDy=0;entryPerimeter=0;" edge="1" parent="1">
          <mxGeometry width="50" height="50" relative="1" as="geometry">
            <mxPoint x="191.92000000000002" y="930" as="sourcePoint" />
            <mxPoint x="299.99999999999994" y="930.0900000000001" as="targetPoint" />
          </mxGeometry>
        </mxCell>
        <mxCell id="5yzEs6_gvC9AchhQLLeW-7" value="" style="endArrow=classic;html=1;rounded=0;fontColor=#000000;exitX=1.192;exitY=0.526;exitDx=0;exitDy=0;exitPerimeter=0;entryX=0;entryY=0.621;entryDx=0;entryDy=0;entryPerimeter=0;" edge="1" parent="1">
          <mxGeometry width="50" height="50" relative="1" as="geometry">
            <mxPoint x="306.92" y="820" as="sourcePoint" />
            <mxPoint x="414.99999999999994" y="820.0900000000001" as="targetPoint" />
          </mxGeometry>
        </mxCell>
        <mxCell id="5yzEs6_gvC9AchhQLLeW-8" value="" style="endArrow=classic;html=1;rounded=0;exitX=-0.145;exitY=0.31;exitDx=0;exitDy=0;exitPerimeter=0;" edge="1" parent="1">
          <mxGeometry width="50" height="50" relative="1" as="geometry">
            <mxPoint x="414.99999999999994" y="860" as="sourcePoint" />
            <mxPoint x="191.45" y="860.5" as="targetPoint" />
          </mxGeometry>
        </mxCell>
        <mxCell id="5yzEs6_gvC9AchhQLLeW-9" value="Quick&lt;br&gt;Sort&lt;br&gt;Button" style="text;html=1;strokeColor=none;fillColor=none;align=center;verticalAlign=middle;whiteSpace=wrap;rounded=0;fontColor=#000000;" vertex="1" parent="1">
          <mxGeometry x="215" y="780" width="60" height="40" as="geometry" />
        </mxCell>
        <mxCell id="5yzEs6_gvC9AchhQLLeW-13" value="quickSort()" style="text;html=1;strokeColor=none;fillColor=none;align=center;verticalAlign=middle;whiteSpace=wrap;rounded=0;fontColor=#000000;" vertex="1" parent="1">
          <mxGeometry x="330" y="800" width="60" height="20" as="geometry" />
        </mxCell>
        <mxCell id="5yzEs6_gvC9AchhQLLeW-14" value="render&lt;br&gt;&lt;div&gt;animation&lt;/div&gt;" style="text;html=1;strokeColor=none;fillColor=none;align=center;verticalAlign=middle;whiteSpace=wrap;rounded=0;" vertex="1" parent="1">
          <mxGeometry x="335" y="830" width="60" height="30" as="geometry" />
        </mxCell>
        <mxCell id="5yzEs6_gvC9AchhQLLeW-15" value="Change Array&lt;br&gt;Size" style="text;html=1;strokeColor=none;fillColor=none;align=center;verticalAlign=middle;whiteSpace=wrap;rounded=0;fontColor=#000000;" vertex="1" parent="1">
          <mxGeometry x="215" y="880" width="60" height="50" as="geometry" />
        </mxCell>
        <mxCell id="5yzEs6_gvC9AchhQLLeW-16" value="" style="endArrow=classic;html=1;rounded=0;exitX=-0.145;exitY=0.31;exitDx=0;exitDy=0;exitPerimeter=0;" edge="1" parent="1">
          <mxGeometry width="50" height="50" relative="1" as="geometry">
            <mxPoint x="413.54999999999995" y="970" as="sourcePoint" />
            <mxPoint x="190" y="970.5" as="targetPoint" />
          </mxGeometry>
        </mxCell>
        <mxCell id="5yzEs6_gvC9AchhQLLeW-17" value="render&lt;br&gt;&lt;div&gt;animation&lt;/div&gt;" style="text;html=1;strokeColor=none;fillColor=none;align=center;verticalAlign=middle;whiteSpace=wrap;rounded=0;" vertex="1" parent="1">
          <mxGeometry x="330" y="940" width="60" height="30" as="geometry" />
        </mxCell>
      </root>
    </mxGraphModel>
  </diagram>
</mxfile>
